<?xml version="1.0" encoding="UTF-8"?>
<!-- Generated by Pixelmator Pro Trial 3.5.3 -->
<svg width="236" height="461" viewBox="0 0 236 461" xmlns="http://www.w3.org/2000/svg">
    <g id="g3026-copy">
        <clipPath id="clipPath1">
            <path d="M -132 484.07709 L 4489.833496 484.07709 L 4489.833496 -36.513181 L -132 -36.513181 L -132 484.07709 Z"/>
        </clipPath>
        <g id="g3028" clip-path="url(#clipPath1)">
            <path id="path3034" fill="#000000" stroke="none" d="M 1.155396 134.114777 C 1.155396 134.114777 13.33696 134.617432 21.649094 134.65332 C 31.878036 134.725128 40.691772 132.409393 40.906754 133.755768 C 41.33667 136.233032 41.605392 245.880127 41.605392 245.880127 C 41.605392 245.880127 42.805634 269.288727 48.538147 281.190491 C 58.587936 302.121826 103.426895 303.845154 103.426895 303.845154 C 103.426895 303.845154 110.377548 304.670898 125.962799 303.46817 C 141.512238 302.247498 171.876587 297.759644 181.711426 279.323547 C 181.711426 279.323547 188.679993 271.496765 191.205902 227.174774 C 193.839264 180.752502 187.641022 134.761047 187.641022 134.761047 L 231.082642 132.768433 C 231.082642 132.768433 228.144745 165.583557 228.07309 227.192719 C 228.019348 288.80188 233.69809 324.955994 233.69809 324.955994 L 190.650574 337.629669 L 190.704315 292.033142 L 170.228516 311.312927 C 170.228516 311.312927 158.279816 323.609619 131.247467 330.574768 C 104.215103 337.521973 83.703491 336.26535 71.432343 333.770111 C 59.125351 331.292847 48.072372 328.007721 41.10379 324.704651 C 34.135223 321.419556 21.846161 315.262238 10.811081 297.975037 C 4.27243 287.760712 4.27243 262.25177 4.27243 262.25177 L 4.774033 214.608826 L 1.155396 134.114777"/>
            <path id="path3036" fill="#000000" stroke="none" d="M 155.521027 119.143311 L 59.447815 22.672577 L 80.335632 1.795105 L 176.408875 98.265839 L 155.521027 119.143311"/>
            <path id="path3038" fill="#000000" stroke="none" d="M 77.773926 119.430542 L 56.93985 98.499237 L 153.228058 2.207977 L 174.062103 23.139313 L 77.773926 119.430542"/>
            <path id="path3040" fill="#000000" stroke="none" d="M 155.664368 265.052185 L 59.573212 168.563477 L 80.461029 147.686035 L 176.552185 244.174728 L 155.664368 265.052185"/>
            <path id="path3042" fill="#000000" stroke="none" d="M 77.899323 265.285583 L 57.065247 244.354248 L 153.353455 148.098907 L 174.1875 169.030243 L 77.899323 265.285583"/>
            <path id="path3044" fill="#000000" stroke="none" d="M 155.431488 459.681152 L 59.37616 363.192444 L 80.263977 342.315002 L 176.319305 438.80368 L 155.431488 459.681152"/>
            <path id="path3046" fill="#000000" stroke="none" d="M 77.684357 459.968384 L 56.850266 439.037048 L 153.120575 342.763763 L 173.972565 363.695068 L 77.684357 459.968384"/>
        </g>
    </g>
</svg>
